<svg role="img" viewBox="0 0 24 24" xmlns="http://www.w3.org/2000/svg">
<title>Notion</title>
<path d="M4.459 4.208c.746.6 1.039.553 2.464.459l13.225-.785c.278 
0 .046-.277-.047-.323l-2.1-1.507c-.415-.324-.97-.693-2.047-.6L2.74 
2.454c-.416.047-.508.277-.37.416zm.784 2.463v14.79c0 
.785.369 1.1 1.231 1.053l14.362-.83c.862-.047.97-.554.97-1.192V5.015c0-.639-.231-.97-.747-.923L6.658 
5.177c-.508.047-.784.277-.784.97zm14.316.83c.047.415 0 
.831-.415.878l-.647.093v11.62c-.57.323-1.1.508-1.508.508-.692 
0-.877-.231-1.415-.923L10.66 9.739v8.432l1.338.324s0 
.83-1.185.83l-3.009.184c-.092-.184 0-.646.323-.739l.785-.231V8.57l-1.1-.092c-.092-.416.138-1.008.784-1.046l3.225-.23 
4.739 7.048V8.847l-1.047-.138c-.093-.508.277-.923.738-.97z"/>
</svg>
